<?xml version="1.0" encoding="utf-8"?>
<!-- Generator: Adobe Illustrator 24.0.3, SVG Export Plug-In . SVG Version: 6.00 Build 0)  -->
<svg version="1.1" id="Camada_1" xmlns="http://www.w3.org/2000/svg" xmlns:xlink="http://www.w3.org/1999/xlink" x="0px" y="0px"
	 viewBox="0 0 81.6 60.8" style="enable-background:new 0 0 81.6 60.8;" xml:space="preserve">
<style type="text/css">
	.st0{fill:#2E3033;}
	.st1{fill:#FFD400;}
</style>
<g id="icone_1_">
	<path class="st0" d="M76.5,1.7c-1.9-1.2-3.9-1.8-5.8-1.7c-3,0.1-5.6,1.2-7.6,3.2L31.4,34.9c-3.4-3.4-6.8-6.8-10.2-10.3l-2.5-2.5
		c-1.9-2-4.9-3.2-7.7-3.2c-2,0-4.1,0.6-5.8,1.7c-1.8,1.1-3,2.5-3,2.5c-1.5,2.1-2.3,4.4-2.2,6.6c0.1,3,1.2,5.6,3.2,7.6l5.9,5.9
		c4,4,8,8,12,12l2.5,2.5c2.1,2.1,4.9,3.1,7.7,3.1s5.6-1,7.7-3.1l39.4-39.4c2-2,3.2-4.9,3.2-7.7c0-2.3-0.8-4.8-2.2-6.6
		C79.4,4,78.8,3.1,76.5,1.7z"/>
</g>
<g id="fundo">
</g>
<g id="icone">
	<path class="st1" d="M76.5,1.7c-1.9-1.2-3.9-1.8-5.8-1.7c-3,0.1-5.6,1.2-7.6,3.2L31.4,34.9c-3.4-3.4-6.8-6.8-10.2-10.3l-2.5-2.5
		c-1.9-2-4.9-3.2-7.7-3.2c-2,0-4.1,0.6-5.8,1.7c-1.8,1.1-3,2.5-3,2.5c-1.5,2.1-2.3,4.4-2.2,6.6c0.1,3,1.2,5.6,3.2,7.6l5.9,5.9
		c4,4,8,8,12,12l2.5,2.5c2.1,2.1,4.9,3.1,7.7,3.1s5.6-1,7.7-3.1l39.4-39.4c2-2,3.2-4.9,3.2-7.7c0-2.3-0.8-4.8-2.2-6.6
		C79.4,4,78.8,3.1,76.5,1.7z M77.6,10.8c0,1.8-0.8,3.7-2,5L36.2,55.2c-2.6,2.6-7.3,2.6-9.9,0l-2.5-2.5c-4-4-8-8-12-12l-5.9-5.9
		c-1.3-1.3-2-3-2.1-5.1c-0.1-2.2,1.3-4,2.1-4.9c1.1-1.2,3.1-2,4.9-2s3.7,0.8,5,2l2.5,2.5c3.9,3.9,7.7,7.7,11.6,11.6l1.4,1.4
		L65.7,5.8c1.6-1.6,3.6-2,5-2c2.2-0.1,4,1.3,4.9,2.1C76.8,6.9,77.6,9,77.6,10.8z"/>
</g>
</svg>
