<?xml version="1.0" encoding="UTF-8"?>
<svg width="58px" height="57px" viewBox="0 0 58 57" version="1.1" xmlns="http://www.w3.org/2000/svg" xmlns:xlink="http://www.w3.org/1999/xlink">
    <!-- Generator: Sketch 51.3 (57544) - http://www.bohemiancoding.com/sketch -->
    <title>ic-voltar-preto</title>
    <desc>Created with Sketch.</desc>
    <defs></defs>
    <g id="Page-1" stroke="none" stroke-width="1" fill="none" fill-rule="evenodd">
        <g id="Desktop-03" transform="translate(-61.000000, -63.000000)" fill="#000" fill-rule="nonzero">
            <g id="Group" transform="translate(61.000000, 63.000000)">
                <path d="M29,57 C44.7401154,57 57.5,44.2401154 57.5,28.5 C57.5,12.7598846 44.7401154,0 29,0 C13.2598846,0 0.5,12.7598846 0.5,28.5 C0.5,44.2401154 13.2598846,57 29,57 Z M27.3035295,52.4321331 C27.3035295,53.3733713 26.5415918,54.0682977 25.6086326,53.9677486 C25.6086326,53.9677486 26.1591012,54.0414823 25.5953134,53.9659754 C13.1217677,52.2954213 3.5,41.5736211 3.5,28.5960702 C3.5,14.459751 14.9167389,3 29,3 C43.0832611,3 54.5,14.459751 54.5,28.5960702 C54.5,41.5698647 44.8838017,52.2892142 32.4155174,53.9645225 C31.8482806,54.0407396 32.3885069,53.9681089 32.3885069,53.9681089 C31.454167,54.0610414 30.6967348,53.3796689 30.6967348,52.4321167 L30.6967348,21.5852057 C30.6967348,21.1151508 30.9643471,21.0035068 31.2922193,21.3335825 L39.673455,29.766125 C41.272503,31.3753968 43.6723474,28.9623424 42.0724512,27.3530705 L30.4601704,15.5698324 C29.6368537,14.7328479 28.3022966,14.7362124 27.4750435,15.5817529 L15.9278132,27.3530705 C14.3279169,28.9623424 16.7269131,31.3753968 18.3268093,29.766125 L26.708045,21.3335825 C27.036922,21.0024952 27.3035295,21.1120368 27.3035295,21.5852057 L27.3035295,52.4321331 Z" id="Shape" transform="translate(29.000000, 28.500000) rotate(-90.000000) translate(-29.000000, -28.500000) "></path>
            </g>
        </g>
    </g>
</svg>