<svg width="20" height="19" viewBox="0 0 20 19" fill="none" xmlns="http://www.w3.org/2000/svg">
<path fill-rule="evenodd" clip-rule="evenodd" d="M9.25 18.1213C9.25 17.7071 9.58579 17.3713 10 17.3713H19C19.4142 17.3713 19.75 17.7071 19.75 18.1213C19.75 18.5355 19.4142 18.8713 19 18.8713H10C9.58579 18.8713 9.25 18.5355 9.25 18.1213Z" fill="#FFD400"/>
<path fill-rule="evenodd" clip-rule="evenodd" d="M16 1.75C15.6363 1.75 15.2875 1.89448 15.0303 2.15165L2.67724 14.5048L2.03079 17.0905L4.61658 16.4441L16.9697 4.09099C17.097 3.96365 17.198 3.81248 17.267 3.6461C17.3359 3.47973 17.3713 3.3014 17.3713 3.12132C17.3713 2.94124 17.3359 2.76292 17.267 2.59654C17.198 2.43016 17.097 2.27899 16.9697 2.15165C16.8423 2.02431 16.6912 1.9233 16.5248 1.85439C16.3584 1.78547 16.1801 1.75 16 1.75ZM13.9697 1.09099C14.5082 0.552513 15.2385 0.25 16 0.25C16.3771 0.25 16.7505 0.324269 17.0988 0.468566C17.4472 0.612864 17.7637 0.824363 18.0303 1.09099C18.297 1.35762 18.5085 1.67415 18.6528 2.02251C18.7971 2.37088 18.8713 2.74425 18.8713 3.12132C18.8713 3.49839 18.7971 3.87176 18.6528 4.22013C18.5085 4.56849 18.297 4.88502 18.0303 5.15165L5.53035 17.6517C5.43423 17.7478 5.31379 17.816 5.18192 17.8489L1.18192 18.8489C0.926336 18.9128 0.655971 18.8379 0.469686 18.6517C0.283401 18.4654 0.208514 18.195 0.272409 17.9394L1.27241 13.9394C1.30538 13.8075 1.37357 13.6871 1.46969 13.591L13.9697 1.09099Z" fill="#FFD400"/>
</svg>
