<svg width="117" height="117" viewBox="0 0 117 117" fill="none" xmlns="http://www.w3.org/2000/svg">
<circle cx="58.5" cy="58.5" r="58.5" fill="white"/>
<path d="M60.5001 68.5C60.5001 68.8978 60.342 69.2794 60.0607 69.5607C59.7794 69.842 59.3979 70 59.0001 70C58.6022 70 58.2207 69.842 57.9394 69.5607C57.6581 69.2794 57.5001 68.8978 57.5001 68.5V57.121L54.0621 60.562C53.7804 60.8437 53.3984 61.0019 53.0001 61.0019C52.6017 61.0019 52.2197 60.8437 51.9381 60.562C51.6564 60.2804 51.4982 59.8984 51.4982 59.5C51.4982 59.1017 51.6564 58.7197 51.9381 58.438L57.9381 52.438C58.0774 52.2983 58.2429 52.1875 58.4252 52.1119C58.6074 52.0363 58.8028 51.9973 59.0001 51.9973C59.1974 51.9973 59.3927 52.0363 59.575 52.1119C59.7572 52.1875 59.9227 52.2983 60.0621 52.438L66.0621 58.438C66.3437 58.7197 66.502 59.1017 66.502 59.5C66.502 59.8984 66.3437 60.2804 66.0621 60.562C65.7804 60.8437 65.3984 61.0019 65.0001 61.0019C64.6017 61.0019 64.2197 60.8437 63.9381 60.562L60.5001 57.121V68.5Z" fill="black"/>
<path d="M77 76V47.5L63.5 34H47C45.4087 34 43.8826 34.6321 42.7574 35.7574C41.6321 36.8826 41 38.4087 41 40V76C41 77.5913 41.6321 79.1174 42.7574 80.2426C43.8826 81.3679 45.4087 82 47 82H71C72.5913 82 74.1174 81.3679 75.2426 80.2426C76.3679 79.1174 77 77.5913 77 76ZM63.5 43C63.5 44.1935 63.9741 45.3381 64.818 46.182C65.6619 47.0259 66.8065 47.5 68 47.5H74V76C74 76.7956 73.6839 77.5587 73.1213 78.1213C72.5587 78.6839 71.7956 79 71 79H47C46.2044 79 45.4413 78.6839 44.8787 78.1213C44.3161 77.5587 44 76.7956 44 76V40C44 39.2044 44.3161 38.4413 44.8787 37.8787C45.4413 37.3161 46.2044 37 47 37H63.5V43Z" fill="black"/>
</svg>
