<?xml version="1.0" encoding="UTF-8"?>
<svg width="24px" height="18px" viewBox="0 0 24 18" version="1.1" xmlns="http://www.w3.org/2000/svg" xmlns:xlink="http://www.w3.org/1999/xlink">
    <!-- Generator: Sketch 59 (86127) - https://sketch.com -->
    <style>
        #03_Cadastro {
            fill: #FFD400;
            stroke: #FFD400;
        }
        #noun_logout_1262621 {
            stroke: #FFD400;
            fill: #FFD400;
        }
    </style>
    <g id="App" stroke="none" stroke-width="1" fill="none" fill-rule="evenodd">
        <g id="03_Cadastro" transform="translate(-329.000000, -21.000000)" fill="#FFFFFF" fill-rule="nonzero">
            <g id="noun_logout_1262621" transform="translate(329.000000, 21.000000)">
                <path d="M12.3275328,0 C13.8336114,0 15.0607867,1.2375 15.0607867,2.75625 L15.0607867,2.75625 L15.0607867,5.0625 C15.0607867,5.68125 14.5587604,6.1875 13.9451728,6.1875 C13.3315852,6.1875 12.829559,5.68125 12.829559,5.0625 L12.829559,5.0625 L12.829559,2.75625 C12.829559,2.475 12.6064362,2.25 12.3275328,2.25 L12.3275328,2.25 L2.73325387,2.25 C2.45435042,2.25 2.23122765,2.475 2.23122765,2.75625 L2.23122765,2.75625 L2.23122765,15.24375 C2.23122765,15.525 2.45435042,15.75 2.73325387,15.75 L2.73325387,15.75 L12.3275328,15.75 C12.6064362,15.75 12.829559,15.525 12.829559,15.24375 L12.829559,15.24375 L12.829559,12.9375 C12.829559,12.31875 13.3315852,11.8125 13.9451728,11.8125 C14.5587604,11.8125 15.0607867,12.31875 15.0607867,12.9375 L15.0607867,12.9375 L15.0607867,15.24375 C15.0607867,16.7625 13.8336114,18 12.3275328,18 L12.3275328,18 L2.73325387,18 C1.22717521,18 0,16.7625 0,15.24375 L0,15.24375 L0,2.75625 C0,1.2375 1.22717521,0 2.73325387,0 L2.73325387,0 Z M17.4872467,4.021875 C17.9334923,3.571875 18.6307509,3.571875 19.0769964,4.021875 L19.0769964,4.021875 L23.2047676,8.240625 L23.2047676,8.38125 C23.316329,8.55 23.4,8.775 23.4,9.028125 C23.4,9.28125 23.3442193,9.478125 23.2047676,9.675 L23.2047676,9.675 L23.2047676,9.815625 L19.0769964,13.978125 C18.8538737,14.203125 18.5749702,14.315625 18.2960667,14.315625 C18.0171633,14.315625 17.7382598,14.203125 17.5151371,13.978125 C17.0688915,13.528125 17.0688915,12.825 17.5151371,12.375 L17.5151371,12.375 L19.7463647,10.125 L8.64600715,10.125 C8.03241955,10.125 7.53039333,9.61875 7.53039333,9 C7.53039333,8.38125 8.03241955,7.875 8.64600715,7.875 L8.64600715,7.875 L19.7463647,7.875 L17.4872467,5.625 C17.0410012,5.175 17.0410012,4.471875 17.4872467,4.021875 Z" id="Combined-Shape"></path>
            </g>
        </g>
    </g>
</svg>