<?xml version="1.0" encoding="utf-8"?>
<!-- Generator: Adobe Illustrator 24.0.3, SVG Export Plug-In . SVG Version: 6.00 Build 0)  -->
<svg version="1.1" xmlns="http://www.w3.org/2000/svg" xmlns:xlink="http://www.w3.org/1999/xlink" x="0px" y="0px"
	 viewBox="0 0 638.7 128.6" style="enable-background:new 0 0 638.7 128.6;" xml:space="preserve">
<style type="text/css">
	.st0{fill:#FFD400;}
</style>

<g id="you">
	<g>
		<path class="st0" d="M36.9,117.6H21.4l8.4-20l-21.1-45h15.7l12.7,27.4l11.5-27.4h15.6L36.9,117.6z"/>
		<path class="st0" d="M113.4,74.9c0,13.5-10.1,23.6-24.1,23.6S65.2,88.4,65.2,74.9c0-13.4,10.1-23.2,24.1-23.2
			S113.4,61.5,113.4,74.9z M99.4,75c0-5.8-4-10.4-10-10.4c-6,0-10.1,4.7-10.1,10.4c0,6,4,10.7,10.1,10.7
			C95.4,85.7,99.4,80.9,99.4,75z"/>
		<path class="st0" d="M166.5,97.1h-14.8v-2.9c-3.6,2.7-7.4,4.3-12.2,4.3c-11.3,0-19-7.8-19-20.4V52.7h14.8v23.1
			c0,6.3,3.3,9.3,8.1,9.3c2.7,0,5.6-1.6,8.1-4.4v-28h14.8V97.1z"/>
	</g>
</g>
</svg>
