<?xml version="1.0" encoding="iso-8859-1"?>
<!-- Generator: Adobe Illustrator 16.0.0, SVG Export Plug-In . SVG Version: 6.00 Build 0)  -->
<!DOCTYPE svg PUBLIC "-//W3C//DTD SVG 1.1//EN" "http://www.w3.org/Graphics/SVG/1.1/DTD/svg11.dtd">
<svg version="1.1" id="Capa_1" xmlns="http://www.w3.org/2000/svg" xmlns:xlink="http://www.w3.org/1999/xlink" x="0px" y="0px"
	 width="942.688px" height="942.688px" viewBox="0 0 942.688 942.688" style="enable-background:new 0 0 942.688 942.688;"
	 xml:space="preserve">
<g>
	<g>
		<path d="M892.688,333.994h-399.4c-13.8,0-27,5.7-36.401,15.7l-66.6,70.9l17.6,21.5h397.801c9.699,0,17.5,7.8,17.5,17.5
			c0,9.699-7.801,17.5-17.5,17.5H436.487l37.6,46c4.3,5.199,7.9,11,10.7,17.1h320.9c9.699,0,17.5,7.8,17.5,17.5
			s-7.801,17.5-17.5,17.5h-313.4l0.9,89.1c0.1,14.801-5.5,28.7-15.9,39.2c-10.3,10.4-24.5,16.3-39,16.3c-3.8,0-7.7-0.399-11.4-1.199
			l-89.199-18.801c-17.801-3.699-33.9-13.5-45.4-27.6l-64.5-78.8l-164.8,174.7c-15,16-3.7,42.1,18.2,42.1h811.501
			c27.6,0,50-22.4,50-50v-376.2C942.688,356.395,920.288,333.994,892.688,333.994z M805.688,725.194h-235.7
			c-9.7,0-17.5-7.8-17.5-17.5s7.8-17.5,17.5-17.5h235.6c9.7,0,17.5,7.8,17.5,17.5S815.288,725.194,805.688,725.194z" fill="#808080"/>
		<path d="M171.187,476.994l51.6,63l25.5,31.2l3.1,3.8l63.9,78c7.2,8.8,17.2,14.9,28.4,17.2l89.199,18.8c1.801,0.4,3.5,0.5,5.2,0.5
			c13.5,0,25.101-11.1,24.9-25.2l-0.9-89.3v-1.899c-0.1-11.4-4.1-22.4-11.3-31.2l-1.6-1.9l-51.601-63l-28.2-34.399l-0.5-0.601
			l-153.5-187.6l24.8-20.3l104,127c4.6,5.6,10.899,8.8,17.6,9.4c0.9,0.1,1.7,0.1,2.6,0.1c5.801,0,11.7-1.9,16.5-5.9
			c11.101-9.1,12.801-25.5,3.7-36.7l-152.3-185.9c-5.2-6.3-12.6-9.6-20.2-9.6c-5.7,0-11.3,1.8-16.1,5.6c-11.5,9-12.9,26.2-3.7,37.5
			l14.8,18.1l-24.8,20.3l-27-33c-17.1-20.9-42.1-31.8-67.2-31.8c-19.3,0-38.8,6.4-54.9,19.6l-1.4,1.1c-37.1,30.4-42.5,85-12.1,122.1
			l122.9,150L171.187,476.994z" fill="#808080"/>
	</g>
</g>
<g>
</g>
<g>
</g>
<g>
</g>
<g>
</g>
<g>
</g>
<g>
</g>
<g>
</g>
<g>
</g>
<g>
</g>
<g>
</g>
<g>
</g>
<g>
</g>
<g>
</g>
<g>
</g>
<g>
</g>
</svg>
