<?xml version="1.0" encoding="UTF-8"?>
<svg width="117px" height="117px" viewBox="0 0 117 117" version="1.1" xmlns="http://www.w3.org/2000/svg" xmlns:xlink="http://www.w3.org/1999/xlink">
    <!-- Generator: Sketch 51.3 (57544) - http://www.bohemiancoding.com/sketch -->
    <title>ic-foto</title>
    <desc>Created with Sketch.</desc>
    <defs></defs>
    <g id="Page-1" stroke="none" stroke-width="1" fill="none" fill-rule="evenodd">
        <g id="Desktop-03" transform="translate(-902.000000, -879.000000)">
            <g id="Group-3" transform="translate(902.000000, 879.000000)">
                <rect id="Rectangle-4" fill="#FFFFFF" x="0" y="0" width="117" height="117" rx="58.5"></rect>
                <path d="M51.5121507,31.5657534 C51.9714459,31.5 52.4963548,31.5657534 53.0212637,31.5 C56.9580802,31.5 60.8948967,31.5 64.8973269,31.5 C66.6688943,31.5 68.4404617,32.6835616 69.1622114,34.2616438 C69.6871203,35.2479452 70.1464156,36.2342466 70.6713244,37.2205479 C70.8025516,37.4835616 70.9337789,37.7465753 71.0650061,37.9438356 C71.5243013,38.5356164 72.1804374,38.8643836 72.9021871,38.8643836 C74.8705954,38.8643836 76.9046173,38.8643836 78.8730255,38.8643836 C79.3323208,38.8643836 79.8572296,38.8643836 80.3165249,38.9958904 C81.6287971,39.2589041 82.8754557,40.0479452 83.7284326,41.1 C84.5157959,42.0205479 84.9750911,43.2041096 85.0407047,44.3876712 C85.0407047,44.8479452 85.171932,45.3082192 85.171932,45.7684932 C85.3031592,47.9383562 85.3687728,50.1739726 85.4343864,52.3438356 C85.4343864,53.5273973 85.4343864,54.6452055 85.5,55.8287671 C85.5,56.8150685 85.5,57.8671233 85.5,58.8534247 C85.5,60.1027397 85.5,61.3520548 85.5,62.6013699 C85.5,64.9027397 85.4343864,67.2041096 85.3687728,69.5054795 C85.3031592,70.8205479 85.3031592,72.1356164 85.1063183,73.3849315 C85.1063183,74.239726 84.8438639,75.0945205 84.4501823,75.8835616 C83.9252734,76.9356164 83.0722965,77.790411 82.0880923,78.3821918 C81.3663426,78.7767123 80.5133657,79.039726 79.6603888,79.1712329 C77.4951397,79.3027397 75.3298906,79.3684932 73.1646416,79.3684932 C69.8839611,79.4342466 66.6032807,79.4342466 63.3226002,79.5 C60.1075334,79.5 56.8924666,79.5 53.6773998,79.5 C51.3153098,79.5 48.8876063,79.4342466 46.5255164,79.4342466 C43.8353584,79.3684932 41.1452005,79.3684932 38.4550425,79.2369863 C37.9301337,79.1712329 37.4052248,79.2369863 36.8803159,79.1054795 C35.5024301,78.8424658 34.2557716,78.1191781 33.4027947,77.1328767 C32.5498177,76.0808219 32.0249089,74.7657534 31.9592953,73.4506849 C31.828068,72.530137 31.7624544,71.609589 31.7624544,70.6232877 C31.5656136,68.4534247 31.5656136,66.3493151 31.5,64.2452055 C31.5,62.0753425 31.5,59.839726 31.5,57.669863 C31.5,55.4342466 31.5,53.1986301 31.5656136,50.9630137 C31.5656136,49.9109589 31.6312272,48.9246575 31.6312272,47.9383562 C31.6968408,46.8863014 31.6968408,45.8342466 31.8936817,44.7821918 C31.9592953,43.5328767 32.4185905,42.2178082 33.2059538,41.2315068 C34.0589307,40.1794521 35.3055893,39.390411 36.6834751,39.1273973 C37.1427704,39.0616438 37.6020656,38.9958904 38.0613609,38.9958904 C40.0953827,38.9958904 42.063791,38.9958904 44.0978129,38.9958904 C44.9507898,38.9958904 45.8037667,38.469863 46.1974484,37.6808219 C46.6567436,36.760274 47.1160389,35.7739726 47.6409478,34.8534247 C47.8377886,34.4589041 48.0346294,33.9986301 48.2970838,33.669863 C48.9532199,32.4863014 50.1998785,31.7630137 51.5121507,31.5657534 Z M52.1682868,34.5246575 C51.6433779,34.5246575 51.0528554,34.8534247 50.7247874,35.2479452 C50.5935601,35.4452055 50.4623329,35.6424658 50.3967193,35.839726 C50.0030377,36.6287671 49.609356,37.4835616 49.1500608,38.2726027 C48.8876063,38.7328767 48.6907655,39.1931507 48.3626974,39.6534247 C47.3784933,41.0342466 45.7381531,41.8890411 44.0978129,41.9547945 C41.9981774,41.9547945 39.8985419,41.9547945 37.7989064,41.9547945 C36.9459295,41.9547945 36.027339,42.4150685 35.5024301,43.0726027 C35.1087485,43.5986301 34.846294,44.3219178 34.9119077,44.9794521 C34.9119077,45.1109589 34.846294,45.2424658 34.846294,45.3739726 C34.7806804,46.0315068 34.7150668,46.7547945 34.7150668,47.4123288 C34.6494532,49.0561644 34.5838396,50.6342466 34.5838396,52.2780822 C34.518226,56.6835616 34.518226,61.0890411 34.5838396,65.4945205 C34.6494532,67.5986301 34.6494532,69.7027397 34.7806804,71.7410959 C34.846294,72.1356164 34.846294,72.530137 34.9119077,72.8589041 C34.9119077,73.0561644 34.9119077,73.1876712 34.9119077,73.3849315 C34.9775213,74.1082192 35.3055893,74.8315068 35.8961118,75.3575342 C36.355407,75.7520548 36.9459295,76.0150685 37.536452,76.0808219 C39.7673147,76.2123288 41.9981774,76.2780822 44.2290401,76.2780822 C48.8219927,76.3438356 53.4805589,76.409589 58.0735115,76.409589 C62.7320778,76.409589 67.390644,76.409589 72.0492102,76.3438356 C74.2144593,76.2780822 76.3797084,76.2780822 78.5449575,76.1465753 C78.8730255,76.0808219 79.2667072,76.1465753 79.5947752,76.0808219 C80.3165249,75.9493151 81.0382746,75.4232877 81.4319563,74.8315068 C81.7600243,74.3054795 81.8912515,73.7136986 81.8912515,73.0561644 C81.9568651,72.6616438 82.0224787,72.2671233 82.0224787,71.8726027 C82.153706,70.2945205 82.153706,68.6506849 82.2193196,67.0726027 C82.2849332,62.469863 82.2849332,57.8013699 82.2849332,53.1986301 C82.2193196,50.9630137 82.2193196,48.7931507 82.0880923,46.5575342 C82.0224787,46.0972603 82.0224787,45.5712329 81.9568651,45.1109589 C81.9568651,44.7821918 81.9568651,44.4534247 81.8256379,44.1246575 C81.6287971,43.3356164 80.972661,42.6123288 80.2509113,42.2835616 C79.8572296,42.0863014 79.3979344,42.0205479 78.9386391,42.0205479 C76.9046173,42.0205479 74.8705954,42.0205479 72.8365735,42.0205479 C71.2618469,42.0205479 69.7527339,41.2972603 68.7685298,40.0479452 C68.3748481,39.5876712 68.1123937,39.1273973 67.9155529,38.6013699 C67.4562576,37.6808219 66.9969623,36.760274 66.5376671,35.839726 C66.4720535,35.6424658 66.3408262,35.4452055 66.209599,35.3136986 C65.881531,34.9191781 65.4222357,34.6561644 64.9629405,34.590411 C64.7660996,34.590411 64.6348724,34.590411 64.4380316,34.590411 C60.3699878,34.5246575 56.2363305,34.5246575 52.1682868,34.5246575 Z" id="Shape" fill="#000000" fill-rule="nonzero"></path>
                <path d="M57.3928611,48.0583228 C59.3866995,47.8525891 61.449291,48.1954786 63.3056233,49.0184134 C65.643227,50.0470819 67.7058185,51.8301073 68.9433733,54.093178 C70.3184343,56.4934045 70.7997057,59.3050984 70.3184343,61.9796365 C69.837163,64.9970641 68.0495837,67.7401801 65.643227,69.5232056 C64.336919,70.4832962 62.824352,71.2376531 61.2430318,71.6491205 C58.8366751,72.2663216 56.2240592,72.0605879 53.9552086,71.1004973 C51.5488519,70.1404067 49.4862604,68.3573812 48.1799525,66.0943105 C47.2174098,64.4484409 46.5986323,62.5282597 46.5298793,60.6080785 C46.3923732,58.8250531 46.7361384,56.9734498 47.4236689,55.3275802 C48.5237177,52.6530421 50.6550622,50.4585493 53.2676781,49.1555692 C54.505233,48.606946 55.949047,48.1954786 57.3928611,48.0583228 Z M57.7366263,51.2129062 C56.2240592,51.350062 54.7114921,51.8986852 53.4739373,52.7901979 C52.1676293,53.6817106 51.1363336,54.9161128 50.4488031,56.3562487 C49.7612726,57.7963846 49.4862604,59.3736763 49.6925195,60.8823901 C49.8300256,62.5282597 50.5175561,64.0369735 51.4800988,65.3399536 C52.3738885,66.5057779 53.6114434,67.4658685 54.9177513,68.0144917 C56.2928123,68.6316929 57.7366263,68.8374266 59.1804403,68.7002708 C60.4179952,68.5631149 61.6555501,68.2202254 62.6868459,67.6030243 C64.336919,66.6429337 65.71198,65.2027978 66.4682636,63.4883503 C67.018288,62.2539481 67.2933002,60.950968 67.2245471,59.57941 C67.1557941,58.1392741 66.7432758,56.6991382 65.9869922,55.3961581 C65.1619556,54.0246001 63.9931538,52.9273537 62.6180928,52.1729968 C61.2430318,51.4186399 59.4554525,51.0757504 57.7366263,51.2129062 Z" id="Shape" fill="#000000" fill-rule="nonzero"></path>
            </g>
        </g>
    </g>
</svg>