<?xml version="1.0" encoding="utf-8"?>
<!-- Generator: Adobe Illustrator 24.0.3, SVG Export Plug-In . SVG Version: 6.00 Build 0)  -->
<svg version="1.1" xmlns="http://www.w3.org/2000/svg" xmlns:xlink="http://www.w3.org/1999/xlink" x="0px" y="0px"
	 viewBox="0 0 638.7 128.6" style="enable-background:new 0 0 638.7 128.6;" xml:space="preserve">
<!-- <style type="text/css">
	.st0{fill:#2E3033;}
</style> -->
<g id="fundo">
</g>
<g id="check.in">
	<g>
		<path class="st0" d="M297.1,78.9h14c-1,11.4-10.4,19.2-22.7,19.2c-14,0-24.3-9.7-24.3-23.3c0-13.5,10.3-23.2,24.3-23.2
			c12.3,0,21.7,7.8,22.7,19.2h-14c-0.7-4-4.1-6.7-8.7-6.7c-6.3,0-10.2,4.6-10.2,10.6c0,6,3.8,10.7,10.2,10.7
			C293,85.6,296.4,82.9,297.1,78.9z"/>
		<path class="st0" d="M365.1,71.8v25.4h-14.9v-23c0-6.3-3.2-9.3-8.1-9.3c-2.7,0-5.7,1.6-8.2,4.5v27.8H319v-65h14.8v23.6
			c3.6-2.8,7.5-4.4,12.3-4.4C357.4,51.4,365.1,59.1,365.1,71.8z"/>
		<path class="st0" d="M418.1,79l0.1,0.3h-31.7c1.2,4,4.3,7.1,10,7.1c3.1,0,5.5-1.2,6.8-3.2h14.6c-2.1,9.2-10.6,14.9-21.6,14.9
			c-14.6,0-24.3-9.7-24.3-23.3c0-13.5,9.4-23.2,23.6-23.2c12.9,0,22.7,8.9,22.7,22.2C418.3,75.6,418.3,77.4,418.1,79z M386.3,70.6
			h18.1c-0.8-4.9-4-7.4-8.8-7.4C390.6,63.2,387.4,66.1,386.3,70.6z"/>
		<path class="st0" d="M457.4,78.9h14c-1,11.4-10.4,19.2-22.7,19.2c-14,0-24.3-9.7-24.3-23.3c0-13.5,10.3-23.2,24.3-23.2
			c12.3,0,21.7,7.8,22.7,19.2h-14c-0.7-4-4.1-6.7-8.7-6.7c-6.3,0-10.2,4.6-10.2,10.6c0,6,3.8,10.7,10.2,10.7
			C453.3,85.6,456.7,82.9,457.4,78.9z"/>
		<path class="st0" d="M494.1,88.4v8.7h-14.8v-65h14.8v37.3l15.5-16.7h17.7l-16.8,18.1l18.3,26.3H511l-10.6-15.4L494.1,88.4z"/>
		<path class="st0" d="M531.5,90.7c0-4.5,3.8-8,8.3-8c4.6,0,8.3,3.5,8.3,8c0,4.6-3.8,8.1-8.3,8.1C535.2,98.8,531.5,95.3,531.5,90.7z
			"/>
		<path class="st0" d="M554.6,37.4c0-4.9,3.8-8.4,8.7-8.4c4.8,0,8.7,3.6,8.7,8.4c0,4.8-3.9,8.3-8.7,8.3
			C558.4,45.8,554.6,42.2,554.6,37.4z M570.8,97.1h-14.8V52.7h14.8V97.1z"/>
		<path class="st0" d="M627.2,71.8v25.4h-14.9v-23c0-6.3-3.2-9.3-8.1-9.3c-2.7,0-5.7,1.6-8.2,4.5v27.8h-14.8V52.7h14.8v3
			c3.6-2.8,7.5-4.4,12.3-4.4C619.5,51.4,627.2,59.1,627.2,71.8z"/>
	</g>
</g>
<g id="you">
	<g>
		<path class="st0" d="M36.9,117.6H21.4l8.4-20l-21.1-45h15.7l12.7,27.4l11.5-27.4h15.6L36.9,117.6z"/>
		<path class="st0" d="M113.4,74.9c0,13.5-10.1,23.6-24.1,23.6S65.2,88.4,65.2,74.9c0-13.4,10.1-23.2,24.1-23.2
			S113.4,61.5,113.4,74.9z M99.4,75c0-5.8-4-10.4-10-10.4c-6,0-10.1,4.7-10.1,10.4c0,6,4,10.7,10.1,10.7
			C95.4,85.7,99.4,80.9,99.4,75z"/>
		<path class="st0" d="M166.5,97.1h-14.8v-2.9c-3.6,2.7-7.4,4.3-12.2,4.3c-11.3,0-19-7.8-19-20.4V52.7h14.8v23.1
			c0,6.3,3.3,9.3,8.1,9.3c2.7,0,5.6-1.6,8.1-4.4v-28h14.8V97.1z"/>
	</g>
</g>
<g id="icone">
	<path class="st0" d="M257.8,27.2c1.4-1.9,2.2-4.2,2.2-6.5c0-2.9-1.3-5.9-3.2-7.7l0,0c-2.3-2.1-5.1-3.2-7.7-3.1
		c-3,0.1-5.6,1.2-7.6,3.2l-31.7,31.7c-3.4-3.4-6.8-6.8-10.2-10.3l-2.5-2.5c-1.9-2-4.9-3.2-7.7-3.2c-2.9,0-5.9,1.3-7.8,3.2
		c-2.1,2.3-3.2,5.1-3.1,7.7c0.1,2.5,0.9,4.7,2.2,6.5c-1.5,2.1-2.3,4.4-2.2,6.6c0.1,2.5,0.9,4.7,2.2,6.5c-1.5,2.1-2.3,4.4-2.2,6.6
		c0.1,3,1.2,5.6,3.2,7.6l5.9,5.9c4,4,8,8,12,12l2.5,2.5c2.1,2.1,4.9,3.1,7.7,3.1c2.8,0,5.6-1,7.7-3.1l39.4-39.4c2-2,3.2-4.9,3.2-7.7
		c0-2.3-0.8-4.8-2.2-6.6c1.4-1.9,2.2-4.2,2.2-6.5C260,31.5,259.2,29.1,257.8,27.2z M256.1,47c0,1.8-0.8,3.7-2,5l-39.4,39.4
		c-2.6,2.6-7.3,2.6-9.9,0l-2.5-2.5c-4-4-8-8-12-12l-5.9-5.9c-1.3-1.3-2-3-2.1-5.1c-0.1-2.2,1.3-4,2.1-4.9c1.1-1.2,3.1-2,4.9-2
		c1.8,0,3.7,0.8,5,2l2.5,2.5c3.9,3.9,7.7,7.7,11.6,11.6l1.4,1.4L244.2,42c1.6-1.6,3.6-2,5-2c2.2-0.1,4,1.3,4.9,2.1
		C255.3,43.1,256.1,45.2,256.1,47z M182.4,52.7c-0.1-2.2,1.3-4,2.1-4.9c1.1-1.2,3.1-2,4.9-2c1.8,0,3.7,0.8,5,2l2.5,2.5
		c3.9,3.9,7.7,7.7,11.6,11.6l1.4,1.4l34.4-34.4c1.6-1.6,3.6-2,5-2c2.2-0.1,4,1.3,4.9,2.1c1.2,1.1,2,3.1,2,4.9c0,1.4-0.5,2.8-1.2,4
		c-1.9-1.2-3.9-1.8-5.8-1.7c-3,0.1-5.6,1.2-7.6,3.2l-31.7,31.7c-3.4-3.4-6.8-6.8-10.2-10.3l-2.5-2.5c-1.9-2-4.9-3.2-7.7-3.2
		c-2,0-4.1,0.6-5.8,1.7C182.9,55.6,182.5,54.2,182.4,52.7z M184.5,34.6c1.1-1.2,3.1-2,4.9-2c1.8,0,3.7,0.8,5,2l2.5,2.5
		c3.9,3.9,7.7,7.7,11.6,11.6l1.4,1.4l34.4-34.4c1.6-1.6,3.6-2,5-2c2.2-0.1,4,1.3,4.9,2.1c1.2,1.1,2,3.1,2,4.9c0,1.4-0.5,2.8-1.2,4
		c-1.9-1.2-3.9-1.8-5.8-1.7c-3,0.1-5.6,1.2-7.6,3.2l-31.7,31.7c-3.4-3.4-6.8-6.8-10.2-10.3l-2.5-2.5c-1.9-2-4.9-3.2-7.7-3.2
		c-2,0-4.1,0.6-5.8,1.7c-0.7-1.1-1.1-2.5-1.2-4C182.3,37.3,183.7,35.5,184.5,34.6z"/>
</g>
</svg>
